<?xml version="1.0" encoding="UTF-8"?>
<!DOCTYPE svg PUBLIC "-//W3C//DTD SVG 1.1//EN" "http://www.w3.org/Graphics/SVG/1.1/DTD/svg11.dtd">
<!-- Creator: CorelDRAW X7 -->
<svg xmlns="http://www.w3.org/2000/svg" xml:space="preserve" width="5.25201in" height="3.64467in" version="1.1" style="shape-rendering:geometricPrecision; text-rendering:geometricPrecision; image-rendering:optimizeQuality; fill-rule:evenodd; clip-rule:evenodd"
viewBox="0 0 4743 3291"
 xmlns:xlink="http://www.w3.org/1999/xlink">
 <defs>
  <style type="text/css">
   <![CDATA[
    .fil3 {fill:#FEFEFE}
    .fil2 {fill:#BDBFC1}
    .fil0 {fill:#00AFEF}
    .fil1 {fill:#00AFEF;fill-rule:nonzero}
   ]]>
  </style>
 </defs>
 <g id="Layer_x0020_1">
  <metadata id="CorelCorpID_0Corel-Layer"/>
  <g id="_859430304">
   <path class="fil0" d="M1514 1043c9,-30 19,-57 29,-83 63,-150 152,-272 272,-372 95,-80 164,-115 281,-162 20,-8 58,-16 73,-24l0 -159c-38,0 -180,53 -218,73l-98 49c-9,5 -13,10 -23,16l-142 108c-119,96 -245,281 -296,424 -8,22 -21,58 -32,93 -53,175 -54,396 -9,571 4,13 8,29 15,49l9 21c18,-7 48,-34 67,-49 19,-14 47,-35 63,-50 1,-14 -15,-87 -18,-109 -22,-130 -10,-270 27,-396zm-204 730c36,-8 244,-127 289,-151 42,-23 75,-40 81,-44 32,-17 327,-176 336,-175 11,2 668,359 692,364l-692 -542c-8,0 -151,116 -169,130l-84 65c-50,37 -139,112 -224,180 -22,18 -227,170 -229,173zm697 -251l-75 0 0 70 75 0 0 -70zm0 93l-75 0 0 70 75 0 0 -70zm90 1l-75 0 0 70 75 0 0 -70zm0 -93l-75 0 0 70 75 0 0 -70zm-23 -310c8,14 140,114 163,132 74,55 36,18 115,32 56,10 48,43 43,91l140 111c17,12 28,24 45,34 29,-16 55,-84 61,-130 14,-98 -13,-192 -102,-232 -11,-5 -23,-7 -34,-12 -95,-37 -323,-26 -431,-26zm-142 11c4,-8 5,-1 9,-12 -49,-2 -102,9 -120,-33 -23,-55 25,-74 70,-76 125,-6 321,-1 459,-1 26,0 51,0 77,1 33,0 31,-10 47,-30 17,-21 127,-164 131,-176 -135,4 -276,0 -411,0 -158,0 -429,-27 -540,73 -12,11 -40,39 -47,57 -61,141 -18,286 136,326 27,7 60,-30 96,-59 15,-11 28,-22 45,-35 9,-6 15,-12 23,-18 8,-5 16,-12 25,-17zm106 -626l-3 259 45 0c5,-80 2,-189 2,-274 -14,0 -33,10 -44,15zm379 -377l1 350c14,11 29,18 48,17l0 -587c-59,15 -48,22 -48,84 0,46 -1,91 -1,136zm-190 -112l0 381c11,3 30,15 44,15 6,-116 2,-294 2,-415 -12,1 -34,14 -46,19zm481 1068l47 -1 0 -776c-19,3 -32,10 -47,19l0 237 0 521zm434 0c1,-260 2,-700 -4,-712 -8,-12 -98,-49 -117,-58l-60 -26c-10,-5 -22,-9 -32,-14 -9,-4 -18,-8 -30,-8l-1 818 6 0c62,0 124,0 186,0 17,0 34,0 52,0z"/>
   <path class="fil1" d="M426 2701c53,0 93,10 121,30 27,19 41,49 41,88 0,22 -4,42 -10,60 -7,18 -18,32 -33,44 -16,13 -35,22 -58,28 -24,7 -52,10 -85,10l-402 0 86 -111 327 0c16,0 27,-3 35,-8 7,-5 11,-13 11,-24 0,-11 -4,-19 -11,-24 -8,-4 -19,-7 -35,-7l-235 0c-28,0 -52,-3 -73,-9 -20,-6 -37,-14 -50,-25 -13,-11 -23,-24 -30,-39 -6,-15 -9,-32 -9,-51 0,-20 3,-39 10,-55 7,-17 18,-31 33,-42 15,-12 34,-21 58,-28 23,-6 51,-9 84,-9l375 0 -86 112 -299 0c-16,0 -27,2 -35,7 -8,4 -11,12 -11,23 0,11 3,19 11,23 8,5 19,7 35,7l235 0zm372 260l81 -111 108 0c13,0 26,0 40,0 14,0 27,0 37,1 -6,-8 -13,-17 -21,-29 -8,-12 -16,-23 -23,-34l-78 -114 -202 287 -159 0 278 -391c9,-12 20,-24 34,-33 14,-10 31,-15 52,-15 20,0 37,4 51,14 13,9 25,20 34,34l270 391 -502 0zm988 7c-8,0 -17,-1 -25,-4 -9,-3 -18,-9 -28,-19l-265 -238 0 254 -122 0 0 -359c0,-14 2,-26 6,-36 4,-11 10,-19 17,-26 6,-6 14,-11 23,-14 9,-3 18,-4 27,-4 8,0 17,1 25,4 8,3 18,9 29,19l265 238 0 -254 122 0 0 358c0,14 -2,26 -6,36 -4,11 -10,19 -17,26 -6,7 -14,11 -23,15 -9,3 -18,4 -28,4zm553 -267c53,0 93,10 121,30 27,19 41,49 41,88 0,22 -3,42 -10,60 -7,18 -18,32 -33,44 -15,13 -34,22 -58,28 -23,7 -51,10 -84,10l-403 0 86 -111 327 0c16,0 28,-3 35,-8 7,-5 11,-13 11,-24 0,-11 -4,-19 -11,-24 -7,-4 -19,-7 -35,-7l-235 0c-28,0 -52,-3 -72,-9 -21,-6 -37,-14 -51,-25 -13,-11 -23,-24 -29,-39 -7,-15 -10,-32 -10,-51 0,-20 3,-39 11,-55 7,-17 18,-31 32,-42 15,-12 35,-21 58,-28 23,-6 52,-9 84,-9l376 0 -86 112 -300 0c-16,0 -27,2 -35,7 -7,4 -11,12 -11,23 0,11 4,19 11,23 8,5 19,7 35,7l235 0zm767 260l-202 0 -131 -114c-22,-19 -39,-34 -51,-45 -12,-11 -22,-20 -29,-27 1,10 1,20 1,31 1,10 1,21 1,31l0 124 -134 0 0 -432 134 0 0 100c0,13 0,26 -1,39 0,13 -1,25 -2,36 9,-7 19,-17 32,-28 12,-12 28,-26 48,-42l125 -105 193 0 -165 124c-14,11 -27,20 -38,28 -11,8 -21,16 -29,22 -9,6 -17,11 -24,16 -7,4 -14,9 -21,13 13,9 28,20 45,33 18,12 41,30 69,53l179 143zm657 0l-179 0 -96 -114 -206 0 0 114 -133 0 0 -221 375 0c21,0 39,-4 53,-13 14,-9 21,-20 21,-35 0,-17 -6,-30 -19,-38 -13,-9 -31,-13 -55,-13l-375 0 87 -112 277 0c25,0 50,2 77,7 26,4 50,12 71,24 22,11 40,27 54,47 14,20 21,45 21,76 0,17 -3,33 -8,48 -5,15 -13,29 -22,41 -10,12 -22,22 -36,30 -14,9 -30,15 -47,18 7,6 15,13 24,21 9,9 21,21 36,36l80 84zm183 0l-133 0 0 -432 133 0 0 432zm620 -432l-86 112 -155 0 0 320 -133 0 0 -320 -203 0 86 -112 491 0zm177 432l-134 0 0 -432 134 0 0 432z"/>
   <path class="fil2" d="M2662 901c-17,6 -42,46 -52,60l-90 119c-9,13 -7,87 -4,97l142 0c10,-21 4,-235 4,-276zm-716 -264c-7,11 -7,9 -8,23 -2,56 5,143 -1,197l48 -1 -3 -231c-18,2 -21,11 -36,12zm1027 1192c5,0 86,2 151,1 -11,17 -24,32 -37,47 -21,24 -43,45 -64,63 -25,21 -51,41 -77,61 -15,12 -32,23 -50,33l-13 0c-220,20 -488,-78 -543,-301 13,0 27,-1 40,-2 26,-3 73,-8 92,-25l16 -14c30,16 59,32 89,48 27,14 53,28 80,41 11,6 33,17 45,20l3 -1c92,39 165,30 268,29zm-364 -572c64,-23 133,-35 201,-37 19,-1 330,0 480,1 1,7 2,14 2,22 6,63 4,124 -5,184 -44,0 -105,0 -169,0 -109,0 -266,-11 -369,15 -26,6 -50,16 -72,28 8,-80 -11,-161 -68,-213zm-487 442c37,4 208,2 254,-3 14,-1 63,-6 73,-16l-286 -153c-17,-9 -33,-21 -38,-16 -6,7 -5,178 -3,188zm-573 -5c5,5 1,3 11,6l167 0c39,0 147,5 177,-2l0 -189c-16,3 -284,150 -332,176 -7,4 -15,5 -23,9zm1255 -1212l-2 695 51 0c-1,-271 2,-551 -3,-821 -1,0 -3,-1 -3,0l-11 2c-27,12 -31,13 -32,34 -1,29 0,61 0,90zm-289 374l143 1c12,-30 -4,-452 5,-468 5,-8 75,-36 90,-44l2 -246c-30,-9 -223,-99 -239,-99l-1 856zm-193 -789c-1,145 2,324 -2,463 10,4 36,18 49,17 2,-104 5,-390 0,-500 -1,0 -2,-1 -3,0l-7 2c-2,1 -7,5 -10,6 -10,5 -18,8 -27,12zm143 583c-7,-14 -10,-10 -24,-18 -33,-19 -197,-90 -216,-90l0 315c32,2 225,5 240,-3l0 -204zm-332 -101c-8,27 -5,261 -5,308 66,3 49,15 50,-124l0 -197c-11,-1 -32,9 -45,13zm2254 2622c20,0 35,4 45,13 11,9 16,22 16,40 0,10 -1,19 -4,27 -3,8 -7,15 -12,20 -6,6 -13,10 -22,13 -9,3 -19,4 -31,4l-151 0 32 -50 122 0c6,0 11,-1 13,-4 3,-2 5,-5 5,-10 0,-6 -2,-9 -5,-11 -2,-2 -7,-3 -13,-3l-88 0c-10,0 -19,-2 -27,-5 -7,-2 -13,-6 -18,-11 -5,-5 -9,-11 -12,-18 -2,-7 -3,-14 -3,-23 0,-9 1,-17 4,-25 2,-7 7,-13 12,-19 6,-5 13,-9 22,-12 8,-3 19,-4 31,-4l141 0 -33 50 -112 0c-6,0 -10,1 -13,3 -2,2 -4,6 -4,11 0,5 2,9 4,11 3,2 7,3 13,3l88 0zm-318 120c-3,0 -6,0 -9,-2 -4,-1 -7,-4 -11,-8l-99 -108 0 115 -45 0 0 -162c0,-6 0,-12 2,-17 1,-4 3,-8 6,-11 2,-3 5,-5 9,-6 3,-2 6,-3 10,-3 3,0 6,1 9,2 3,2 7,4 11,9l99 107 0 -114 46 0 0 161c0,7 -1,12 -3,17 -1,5 -3,9 -6,12 -2,3 -5,5 -8,6 -4,2 -7,2 -11,2zm-418 -202c39,0 68,9 88,25 20,16 30,41 30,76 0,35 -10,61 -30,77 -19,16 -49,24 -88,24 -40,0 -70,-8 -89,-24 -20,-16 -30,-42 -30,-77 0,-35 10,-60 30,-76 19,-16 49,-25 89,-25zm0 151c12,0 23,0 31,-1 9,-2 16,-4 22,-8 5,-4 9,-9 11,-15 3,-7 4,-15 4,-26 0,-10 -1,-19 -4,-25 -2,-7 -6,-12 -11,-16 -6,-3 -13,-6 -22,-7 -8,-1 -19,-2 -31,-2 -13,0 -24,1 -32,2 -9,1 -16,4 -22,7 -5,4 -9,9 -11,16 -3,6 -4,15 -4,25 0,11 1,19 4,26 2,6 6,11 11,15 6,4 13,6 22,8 8,1 19,1 32,1zm-256 48l-50 0 0 -195 50 0 0 195zm-177 -195l-33 50 -57 0 0 145 -50 0 0 -145 -76 0 32 -50 184 0zm-330 145l-32 50 -81 0c-14,0 -27,-2 -39,-8 -12,-5 -22,-12 -31,-20 -8,-9 -15,-20 -20,-32 -5,-12 -7,-25 -7,-40 0,-14 2,-27 7,-39 5,-11 12,-21 20,-30 9,-8 19,-15 31,-19 12,-5 25,-7 39,-7l113 0 -32 50 -81 0c-7,0 -13,2 -19,4 -6,2 -11,6 -15,10 -4,4 -7,9 -10,15 -2,6 -3,12 -3,19 0,7 1,13 3,19 2,6 6,11 10,15 4,4 9,7 15,9 6,3 12,4 19,4l113 0zm-345 -35c0,59 -33,88 -101,88 -19,0 -36,-2 -50,-5 -14,-4 -25,-10 -34,-17 -10,-7 -16,-17 -21,-28 -4,-11 -6,-23 -6,-38l0 -110 50 0 0 110c0,7 1,13 2,18 2,5 5,9 9,12 5,3 11,5 19,6 8,1 19,2 31,2 10,0 18,-1 25,-2 6,-1 11,-4 15,-7 4,-3 7,-7 8,-12 2,-5 3,-10 3,-17l0 -110 50 0 0 110zm-339 85l-67 0 -36 -52 -77 0 0 52 -50 0 0 -100 141 0c8,0 14,-2 19,-6 6,-4 8,-9 8,-16 0,-7 -2,-13 -7,-17 -5,-4 -11,-6 -20,-6l-141 0 33 -50 104 0c9,0 19,1 28,3 10,2 19,5 27,11 8,5 15,12 20,21 5,9 8,20 8,34 0,8 -1,15 -3,22 -2,7 -5,13 -8,18 -4,6 -8,11 -14,14 -5,4 -11,7 -17,8 2,3 5,6 9,10 3,4 8,9 13,16l30 38zm-339 -195l-33 50 -58 0 0 145 -50 0 0 -145 -76 0 33 -50 184 0zm-381 78c20,0 35,4 45,13 11,9 16,22 16,40 0,10 -2,19 -4,27 -3,8 -7,15 -12,20 -6,6 -13,10 -22,13 -9,3 -19,4 -32,4l-150 0 32 -50 122 0c6,0 11,-1 13,-4 3,-2 4,-5 4,-10 0,-6 -1,-9 -4,-11 -2,-2 -7,-3 -13,-3l-88 0c-10,0 -19,-2 -27,-5 -7,-2 -14,-6 -19,-11 -5,-5 -8,-11 -11,-18 -2,-7 -3,-14 -3,-23 0,-9 1,-17 4,-25 2,-7 6,-13 12,-19 5,-5 13,-9 21,-12 9,-3 20,-4 32,-4l140 0 -32 50 -112 0c-6,0 -10,1 -13,3 -3,2 -4,6 -4,11 0,5 1,9 4,11 3,2 7,3 13,3l88 0zm-318 120c-3,0 -6,0 -10,-2 -3,-1 -6,-4 -10,-8l-99 -108 0 115 -46 0 0 -162c0,-6 1,-12 3,-17 1,-4 3,-8 6,-11 2,-3 5,-5 8,-6 4,-2 7,-3 11,-3 3,0 6,1 9,2 3,2 7,4 11,9l99 107 0 -114 46 0 0 161c0,7 -1,12 -3,17 -1,5 -3,9 -6,12 -2,3 -5,5 -9,6 -3,2 -6,2 -10,2zm-419 -202c40,0 69,9 89,25 20,16 30,41 30,76 0,35 -10,61 -30,77 -20,16 -49,24 -89,24 -39,0 -69,-8 -88,-24 -20,-16 -30,-42 -30,-77 0,-35 10,-60 30,-76 19,-16 49,-25 88,-25zm0 151c13,0 24,0 32,-1 9,-2 16,-4 21,-8 6,-4 10,-9 12,-15 3,-7 4,-15 4,-26 0,-10 -1,-19 -4,-25 -2,-7 -6,-12 -12,-16 -5,-3 -12,-6 -21,-7 -8,-1 -19,-2 -32,-2 -12,0 -23,1 -32,2 -8,1 -15,4 -21,7 -5,4 -9,9 -11,16 -3,6 -4,15 -4,25 0,11 1,19 4,26 2,6 6,11 11,15 6,4 13,6 21,8 9,1 20,1 32,1zm-241 -2l-32 50 -82 0c-14,0 -27,-2 -39,-8 -12,-5 -22,-12 -30,-20 -9,-9 -16,-20 -21,-32 -5,-12 -7,-25 -7,-40 0,-14 2,-27 7,-39 5,-11 12,-21 21,-30 8,-8 18,-15 30,-19 12,-5 25,-7 39,-7l114 0 -32 50 -82 0c-6,0 -13,2 -19,4 -5,2 -10,6 -15,10 -4,4 -7,9 -9,15 -3,6 -4,12 -4,19 0,7 1,13 3,19 3,6 6,11 10,15 5,4 10,7 15,9 6,3 13,4 19,4l114 0zm2521 -1220c-17,14 -35,28 -80,63 -77,60 -199,110 -299,137 -45,13 -69,16 -120,22 -44,6 -86,8 -136,7 -89,-2 -51,-1 -129,-12 -41,-6 -87,-16 -119,-28 -59,-24 -89,-28 -154,-62 -15,-8 -28,-16 -44,-25 -87,-47 -173,-122 -237,-195 -58,-66 -74,-99 -118,-167 -28,-2 -65,0 -94,0 -39,-1 -42,4 -71,20 2,18 52,99 64,118 48,76 102,140 163,200 19,19 75,70 98,83 63,57 207,131 287,158 259,89 489,92 751,1 28,-10 50,-18 79,-32 12,-6 26,-12 38,-18 164,-90 277,-176 391,-330 180,-243 258,-569 192,-874 -8,-37 -34,-140 -51,-167 -12,-50 -73,-159 -103,-204 -16,-25 -113,-163 -138,-167 -4,67 1,143 0,211 0,51 7,45 28,80 70,117 113,252 125,401 14,159 -16,304 -76,447 -4,12 -14,31 -25,52 -71,132 -119,192 -222,281z"/>
   <path class="fil3" d="M1946 637l-12 4c-4,15 -4,199 0,216 14,5 38,5 53,0 5,-18 2,-93 1,-117l0 -101c-3,-23 1,-8 -6,-14l3 231 -48 1c6,-54 -1,-141 1,-197 1,-14 1,-12 8,-23z"/>
  </g>
 </g>
</svg>
